<svg version="1.2" baseProfile="tiny-ps" xmlns="http://www.w3.org/2000/svg" viewBox="0 0 626 506" width="626" height="506">
	<title>logo-svg</title>
	<style>
		tspan { white-space:pre }
		.shp0 { fill: #68c2e8 } 
	</style>
	<g id="_469y_8l2lf9Q1mj_DHaI_">
		<g id="_VhszvOFyKMW0SGS_kieQD">
			<path id="_w5VfJMYMvW54Lz4D9PC_5" class="shp0" d="M439.19 263.16C438.17 263.21 437.18 263.49 436.29 263.99C435.4 264.49 434.65 265.19 434.08 266.04C433.52 266.89 433.16 267.86 433.04 268.87C432.91 269.88 433.03 270.9 433.38 271.86C450.59 322.11 434.61 377.68 393.37 411.16C352.12 444.64 294.43 448.82 248.78 421.66C203.12 394.5 179.29 341.82 189.05 289.61C189.36 287.92 188.98 286.18 188.01 284.76C187.03 283.35 185.54 282.37 183.84 282.06C182.15 281.74 180.41 282.11 178.99 283.08C177.57 284.05 176.59 285.54 176.26 287.23C165.52 344.75 191.83 402.9 242.13 432.82C292.43 462.74 356.12 458.14 401.56 421.26C447 384.37 464.62 323.01 445.66 267.65C445.44 266.98 445.11 266.35 444.69 265.78C444.27 265.21 443.76 264.72 443.18 264.31C442.6 263.91 441.96 263.6 441.28 263.41C440.6 263.21 439.89 263.13 439.19 263.16L439.19 263.16Z" />
			<path id="__b1uMK-K3j3VzElhr3nFU" class="shp0" d="M297.78 292.53C297.74 292.53 297.71 292.53 297.67 292.53C297.64 292.53 297.6 292.53 297.56 292.53C297.53 292.53 297.49 292.53 297.46 292.53C297.42 292.53 297.38 292.53 297.35 292.53C245.04 298.29 203.03 335.55 195.54 383.85C195.23 385.57 195.64 387.34 196.65 388.76C197.67 390.17 199.22 391.12 200.94 391.39C202.67 391.66 204.43 391.22 205.83 390.17C207.23 389.12 208.14 387.56 208.37 385.83C214.89 343.81 251.75 310.62 298.77 305.45C300.43 305.24 301.95 304.41 303.01 303.12C304.07 301.82 304.59 300.17 304.46 298.51C304.33 296.84 303.57 295.29 302.32 294.17C301.08 293.05 299.45 292.46 297.78 292.51L297.78 292.53Z" />
			<path id="_1OxYLyv4D83hLS9At3uga" fill-rule="evenodd" class="shp0" d="M305.82 82.05C282.98 82.05 242.6 91.96 242.6 91.96L238.16 93.03L234.4 126.79L247.32 128.21L250.03 103.89C255.34 102.68 288.41 95.03 305.82 95.03C323.23 95.03 356.23 102.68 361.56 103.89L364.31 131.41L377.22 130.11L373.51 93.02L369.02 91.96C369.02 91.96 328.67 82.04 305.82 82.04L305.82 82.05Z" />
			<path id="_bjBsgcb-txW2rLEU6WLQm" fill-rule="evenodd" class="shp0" d="M307.21 44.38C307.04 44.38 306.87 44.39 306.71 44.4C306.54 44.41 306.37 44.43 306.21 44.46C306.04 44.48 305.88 44.51 305.71 44.55C305.55 44.59 305.39 44.63 305.23 44.68L201.31 77.35C199.97 77.77 198.8 78.61 197.98 79.74C197.16 80.88 196.73 82.25 196.75 83.65C196.77 85.05 197.24 86.4 198.1 87.51C198.95 88.62 200.14 89.43 201.49 89.8L227.47 97.11L240.46 100.76L246.96 102.59L250.48 90.08L243.99 88.26L231 84.61L225.97 83.19L307.19 57.67L388.38 83.19L383.35 84.61L370.36 88.26L363.87 90.08L367.39 102.59L373.89 100.76L386.88 97.11L412.86 89.8C414.21 89.43 415.4 88.62 416.25 87.51C417.11 86.4 417.58 85.05 417.6 83.65C417.62 82.25 417.19 80.88 416.37 79.74C415.55 78.61 414.38 77.77 413.04 77.35L309.12 44.68C308.97 44.63 308.81 44.59 308.65 44.55C308.5 44.52 308.34 44.49 308.18 44.46C308.02 44.44 307.86 44.42 307.7 44.4C307.54 44.39 307.38 44.38 307.22 44.38L307.21 44.38Z" />
			<path id="_LuMTTtqgXcIwDC9OxOTkr" fill-rule="evenodd" class="shp0" d="M203.27 424.22C202.25 424.22 201.25 424.45 200.34 424.91C199.43 425.36 198.64 426.02 198.04 426.83C197.43 427.65 197.02 428.59 196.85 429.59C196.67 430.59 196.73 431.62 197.02 432.59L203.47 455.14C203.9 456.85 205 458.3 206.53 459.18C208.05 460.06 209.87 460.28 211.56 459.8C213.25 459.31 214.67 458.16 215.5 456.61C216.33 455.06 216.49 453.24 215.95 451.56L209.51 429.02C209.32 428.33 209.03 427.69 208.63 427.1C208.24 426.51 207.76 426 207.2 425.57C206.64 425.14 206.01 424.8 205.34 424.57C204.67 424.34 203.97 424.23 203.27 424.22L203.27 424.22Z" />
			<path id="_LxmC8lxBaGR8zWGX5NcHy" fill-rule="evenodd" class="shp0" d="M221.44 422.66C220.43 422.66 219.42 422.89 218.51 423.34C217.61 423.8 216.82 424.46 216.21 425.27C215.6 426.09 215.2 427.03 215.02 428.03C214.84 429.03 214.91 430.06 215.2 431.03L221.64 453.58C222.07 455.28 223.18 456.74 224.7 457.62C226.23 458.5 228.04 458.72 229.73 458.23C231.42 457.75 232.84 456.6 233.67 455.05C234.5 453.5 234.66 451.68 234.13 450L227.68 427.45C227.5 426.77 227.2 426.12 226.81 425.54C226.42 424.95 225.93 424.43 225.37 424C224.81 423.57 224.18 423.24 223.52 423.01C222.85 422.78 222.15 422.66 221.44 422.66L221.44 422.66Z" />
			<path id="_50rO6D5ZSWSJQS4TXGnTf" fill-rule="evenodd" class="shp0" d="M240.67 424.22C239.66 424.22 238.66 424.45 237.75 424.91C236.84 425.36 236.05 426.02 235.44 426.83C234.84 427.65 234.43 428.59 234.25 429.59C234.08 430.59 234.14 431.62 234.43 432.59L240.88 455.14C241.31 456.85 242.41 458.3 243.93 459.18C245.46 460.06 247.27 460.28 248.97 459.8C250.66 459.31 252.08 458.16 252.91 456.61C253.73 455.06 253.9 453.24 253.36 451.56L246.91 429.02C246.73 428.33 246.44 427.69 246.04 427.1C245.65 426.51 245.16 426 244.6 425.57C244.04 425.14 243.42 424.8 242.75 424.57C242.08 424.34 241.38 424.23 240.67 424.22L240.67 424.22Z" />
			<path id="_dDhMJnOyQjOgEteBR9S_A" fill-rule="evenodd" class="shp0" d="M424.11 425.79C423.42 425.81 422.74 425.95 422.1 426.19C421.46 426.43 420.85 426.77 420.32 427.2C419.78 427.63 419.31 428.14 418.94 428.71C418.56 429.29 418.28 429.92 418.1 430.58L411.65 453.13C411.11 454.8 411.28 456.63 412.1 458.18C412.93 459.73 414.35 460.88 416.05 461.36C417.74 461.85 419.55 461.62 421.08 460.75C422.6 459.87 423.7 458.41 424.13 456.71L430.58 434.16C430.88 433.17 430.94 432.12 430.75 431.1C430.56 430.08 430.13 429.12 429.5 428.31C428.87 427.49 428.05 426.83 427.11 426.39C426.17 425.95 425.14 425.75 424.11 425.79Z" />
			<path id="_U-GHM0656VWIoousC5ejM" fill-rule="evenodd" class="shp0" d="M404.37 425.79C403.69 425.81 403.01 425.95 402.37 426.19C401.72 426.43 401.12 426.77 400.58 427.2C400.04 427.63 399.58 428.14 399.2 428.71C398.82 429.29 398.54 429.92 398.36 430.58L391.92 453.13C391.38 454.8 391.54 456.63 392.37 458.18C393.2 459.73 394.62 460.88 396.31 461.36C398 461.85 399.82 461.62 401.34 460.75C402.87 459.87 403.97 458.41 404.4 456.71L410.84 434.16C411.14 433.17 411.2 432.12 411.01 431.1C410.83 430.08 410.4 429.12 409.77 428.31C409.13 427.49 408.31 426.83 407.38 426.39C406.44 425.95 405.41 425.75 404.37 425.79Z" />
			<path id="_D9cDtMgtSV5qjXo3unqTk" fill-rule="evenodd" class="shp0" d="M383.58 425.79C382.89 425.81 382.21 425.95 381.57 426.19C380.92 426.43 380.32 426.77 379.79 427.2C379.25 427.63 378.78 428.14 378.41 428.71C378.03 429.29 377.74 429.92 377.56 430.58L371.12 453.13C370.58 454.8 370.74 456.63 371.57 458.18C372.4 459.73 373.82 460.88 375.51 461.36C377.21 461.85 379.02 461.62 380.55 460.75C382.07 459.87 383.17 458.41 383.6 456.71L390.05 434.16C390.35 433.17 390.41 432.12 390.22 431.1C390.03 430.08 389.6 429.12 388.97 428.31C388.34 427.49 387.52 426.83 386.58 426.39C385.64 425.95 384.61 425.75 383.58 425.79Z" />
			<path id="_G2KTZoLS2N0Lt4IxG2Glj" class="shp0" d="M337.42 290.95C335.8 291.05 334.27 291.76 333.14 292.93C332.02 294.11 331.37 295.66 331.34 297.28C331.3 298.91 331.88 300.49 332.95 301.71C334.02 302.93 335.52 303.71 337.13 303.88C372.31 308.21 402.47 328.51 417.33 357.4C418.08 359 419.44 360.23 421.11 360.8C422.79 361.38 424.62 361.24 426.19 360.44C427.76 359.63 428.94 358.21 429.44 356.52C429.95 354.83 429.74 353 428.88 351.47C411.88 318.44 377.87 295.82 338.71 291C338.6 290.99 338.49 290.98 338.38 290.97C338.27 290.97 338.16 290.96 338.06 290.96C337.95 290.96 337.84 290.97 337.73 290.97C337.62 290.98 337.51 290.99 337.41 291L337.42 290.95Z" />
			<path id="_UR7NBotQ-4vvH9DFqdeE1" fill-rule="evenodd" class="shp0" d="M305.6 225.98C305.6 261.76 276.44 290.91 240.65 290.91C204.85 290.91 175.7 261.76 175.7 225.98C175.7 190.19 204.85 161.04 240.65 161.04C276.44 161.04 305.6 190.19 305.6 225.98ZM188.69 225.98C188.69 254.74 211.87 277.92 240.65 277.92C269.42 277.92 292.61 254.74 292.61 225.98C292.61 197.21 269.42 174.03 240.65 174.03C211.87 174.03 188.69 197.21 188.69 225.98Z" />
			<path id="_YhHzF7fi1cfGJKVtDrjvV" class="shp0" d="M388.45 187.06C379.68 187.43 371.02 190.73 364.09 196.9C362.81 198.05 362.03 199.66 361.93 201.38C361.84 203.1 362.43 204.79 363.57 206.07C364.72 207.36 366.33 208.13 368.05 208.23C369.77 208.33 371.46 207.74 372.75 206.59C382.02 198.32 395.75 197.74 405.68 205.22C415.6 212.71 418.85 226.06 413.44 237.26C408.04 248.45 395.57 254.22 383.53 251.11C371.49 247.99 363.39 236.91 364.09 224.5C364.24 222.75 363.68 221.02 362.53 219.7C361.38 218.37 359.74 217.57 357.99 217.47C356.24 217.37 354.52 217.98 353.23 219.17C351.94 220.35 351.18 222.01 351.13 223.76C350.08 242.28 362.32 259.04 380.28 263.68C398.24 268.33 417.07 259.61 425.14 242.91C433.2 226.21 428.3 206.04 413.49 194.87C406.08 189.29 397.22 186.7 388.45 187.06L388.45 187.06Z" />
			<path id="_tO6SfiQe42B-bQ955sDr4" class="shp0" d="M390.31 204.7C388.58 204.7 386.93 205.38 385.71 206.6C384.49 207.82 383.8 209.48 383.8 211.2C383.8 212.93 384.49 214.59 385.71 215.81C386.93 217.03 388.58 217.71 390.31 217.71C392.77 217.71 394.62 219.56 394.62 222.02C394.62 223.75 395.31 225.4 396.53 226.62C397.75 227.84 399.4 228.53 401.13 228.53C402.86 228.53 404.51 227.84 405.73 226.62C406.95 225.4 407.64 223.75 407.64 222.02C407.64 212.53 399.8 204.7 390.31 204.7Z" />
			<path id="_GU1vBSD7bREMvdUqRXO4w" fill-rule="evenodd" class="shp0" d="M461.48 225.98C461.48 261.76 432.33 290.91 396.53 290.91C360.74 290.91 331.58 261.76 331.58 225.98C331.58 190.19 360.74 161.04 396.53 161.04C432.33 161.04 461.48 190.19 461.48 225.98ZM344.57 225.98C344.57 254.74 367.76 277.92 396.53 277.92C425.31 277.92 448.49 254.74 448.49 225.98C448.49 197.21 425.31 174.03 396.53 174.03C367.76 174.03 344.57 197.21 344.57 225.98Z" />
			<path id="_RHjWwRKfbx2wcVEBH_sK0" class="shp0" d="M205.48 99.97C194.82 99.97 186.07 108.79 186.07 119.45C186.04 121.18 186.72 122.86 187.94 124.1C189.16 125.34 190.82 126.03 192.56 126.03C194.3 126.03 195.97 125.34 197.19 124.1C198.41 122.86 199.08 121.18 199.06 119.45C199.06 115.76 201.88 112.95 205.48 112.95C209.06 112.95 211.87 115.76 211.87 119.45C211.87 120.93 211.69 123.01 211.47 123.81C210.96 125.48 211.15 127.28 211.99 128.81C212.83 130.34 214.25 131.47 215.93 131.94C217.62 132.41 219.41 132.18 220.93 131.31C222.44 130.44 223.54 129 223.97 127.31C224.82 124.3 224.86 121.55 224.86 119.45C224.86 108.79 216.13 99.97 205.47 99.97L205.48 99.97Z" />
			<path id="_PoraNQffI1SxUR3XEmnJ3" fill-rule="evenodd" class="shp0" d="M195.68 80.48L195.68 106.45L208.67 106.45L208.67 80.48L195.68 80.48Z" />
			<path id="_pQPlvwvGw6th86SLJ9D1k" class="shp0" d="M229.33 187.33C220.58 188.42 212.19 192.46 205.79 199.25C204.61 200.5 203.97 202.18 204.03 203.9C204.08 205.62 204.81 207.25 206.07 208.43C207.32 209.61 209 210.25 210.72 210.19C212.44 210.14 214.07 209.41 215.25 208.15C223.83 199.05 237.56 197.33 248.11 204.04C258.66 210.76 262.9 223.92 258.28 235.55C253.67 247.17 241.54 253.82 229.26 251.47C216.97 249.13 208.17 238.46 208.17 225.96C208.2 224.22 207.53 222.54 206.3 221.31C205.08 220.07 203.42 219.37 201.68 219.37C199.94 219.37 198.27 220.07 197.05 221.31C195.83 222.54 195.16 224.22 195.18 225.96C195.18 244.61 208.5 260.73 226.82 264.23C245.15 267.74 263.47 257.68 270.36 240.34C277.24 223 270.83 203.1 255.09 193.09C247.22 188.08 238.09 186.24 229.33 187.33L229.33 187.33Z" />
			<path id="_0INKzo_k7MMfh8L2OChSn" class="shp0" d="M235.99 207.82C234.26 207.82 232.61 208.51 231.38 209.73C230.16 210.95 229.48 212.6 229.48 214.33C229.48 216.05 230.16 217.71 231.38 218.93C232.61 220.15 234.26 220.83 235.99 220.83C238.45 220.83 240.3 222.68 240.3 225.15C240.3 226.87 240.98 228.53 242.21 229.75C243.43 230.97 245.08 231.65 246.81 231.65C248.53 231.65 250.19 230.97 251.41 229.75C252.63 228.53 253.32 226.87 253.32 225.15C253.32 215.65 245.48 207.82 235.99 207.82L235.99 207.82Z" />
			<path id="_qwXNWg-VCji4lBsWaJKrg" fill-rule="evenodd" class="shp0" d="M171.12 117.22C170.26 117.21 169.4 117.37 168.61 117.68C167.81 118 167.08 118.48 166.47 119.08C165.85 119.68 165.37 120.4 165.03 121.19C164.7 121.98 164.52 122.83 164.52 123.69C164.52 123.72 164.52 123.74 164.52 123.77C164.52 123.8 164.52 123.82 164.52 123.85C164.52 123.88 164.52 123.9 164.52 123.93C164.52 123.96 164.52 123.99 164.52 124.01L164.52 124.19C164.52 124.22 164.52 124.25 164.52 124.28C164.52 124.31 164.52 124.34 164.52 124.37C164.52 124.4 164.52 124.43 164.52 124.46C164.52 124.49 164.52 124.52 164.52 124.55C164.52 125.03 164.99 133.64 166.63 143.97C167.47 149.29 168.61 154.95 170.25 160.13C171.9 165.32 173.8 170.09 177.56 173.83C178.77 175.08 180.44 175.8 182.18 175.81C183.93 175.82 185.6 175.13 186.83 173.89C188.06 172.66 188.75 170.98 188.72 169.23C188.7 167.49 187.98 165.83 186.72 164.62C185.79 163.7 183.97 160.45 182.64 156.23C181.3 152 180.22 146.85 179.44 141.95C178.66 137.05 178.75 136.08 178.45 132.66C184.84 134.93 191.29 137.58 199.33 138.85C225.86 143.04 251.38 134.85 272.76 140.48C276.89 141.57 284.53 145.47 290.57 149.07C296.61 152.67 301.3 155.9 301.3 155.9C301.8 156.24 302.35 156.52 302.93 156.71C303.51 156.91 304.11 157.02 304.72 157.05C305.33 157.07 305.94 157.01 306.53 156.87C307.13 156.73 307.7 156.5 308.23 156.2C308.23 156.2 314.13 152.79 321.67 149.02C329.21 145.25 338.59 141.18 344.03 139.96C365.11 135.26 389.62 142.58 415.24 138.87C423.48 137.68 430.52 135 436.78 132.91C436.78 136.02 436.95 136.8 436.35 141.66C435.78 146.41 434.81 151.57 433.34 156.3C432.83 157.94 432.99 159.72 433.79 161.24C434.59 162.76 435.96 163.9 437.61 164.42C439.25 164.93 441.03 164.77 442.55 163.98C444.08 163.18 445.22 161.82 445.74 160.18C447.54 154.43 448.6 148.56 449.24 143.23C450.56 132.6 450.2 123.98 450.2 123.98C450.17 122.97 449.89 121.98 449.4 121.09C448.91 120.2 448.21 119.44 447.37 118.87C446.54 118.29 445.57 117.93 444.57 117.79C443.56 117.66 442.54 117.76 441.58 118.1C441.58 118.1 421.82 124.76 413.39 125.98C391.69 129.13 366.75 121.55 341.18 127.26C333.19 129.04 323.78 133.42 315.86 137.38C309.94 140.34 307.41 141.81 305.28 143.01C303.41 141.75 301.75 140.59 297.22 137.88C290.77 134.04 283.13 129.75 276.08 127.89C249.72 120.95 223.62 129.53 201.36 126.01C192.97 124.69 173.23 117.57 173.23 117.57L173.23 117.57C173.05 117.5 172.87 117.44 172.7 117.39C172.52 117.34 172.34 117.3 172.15 117.26C171.97 117.22 171.79 117.2 171.6 117.18C171.42 117.16 171.23 117.14 171.04 117.14L171.12 117.22Z" />
			<path id="_8G5ammroIcZbYvBhTa9Ma" fill-rule="evenodd" class="shp0" d="M314.93 251.98C315.36 251.97 315.8 252 316.23 252.07C316.65 252.15 317.07 252.27 317.48 252.42C317.88 252.58 318.27 252.78 318.63 253.02C319 253.25 319.34 253.53 319.65 253.83L342.38 276.12C342.91 276.64 343.34 277.24 343.66 277.9C343.98 278.56 344.19 279.27 344.28 280.01C344.36 280.74 344.32 281.48 344.16 282.19C343.99 282.91 343.71 283.59 343.32 284.22L320.58 320.36C320 321.29 319.19 322.05 318.23 322.58C317.27 323.11 316.19 323.39 315.09 323.39C314 323.39 312.92 323.11 311.96 322.58C311 322.05 310.18 321.29 309.6 320.36L286.87 284.22C286.47 283.59 286.19 282.91 286.03 282.19C285.86 281.48 285.82 280.74 285.91 280.01C285.99 279.27 286.2 278.56 286.52 277.9C286.85 277.24 287.28 276.64 287.8 276.12L310.53 253.83C310.83 253.55 311.14 253.29 311.48 253.06C311.82 252.84 312.18 252.65 312.55 252.49C312.93 252.33 313.32 252.21 313.71 252.12C314.11 252.04 314.52 251.99 314.92 251.98L314.93 251.98ZM300.64 281.73L315.08 304.71L329.54 281.73L315.1 267.58L300.64 281.73Z" />
		</g>
	</g>
</svg>